<svg xmlns="http://www.w3.org/2000/svg" viewBox="0 0 1280 640" width="1280" height="640">
  <defs>
    <linearGradient id="amber" x1="0%" y1="0%" x2="100%" y2="100%">
      <stop offset="0%" stop-color="#f59e0b"/>
      <stop offset="100%" stop-color="#fbbf24"/>
    </linearGradient>
    <linearGradient id="amberDark" x1="0%" y1="0%" x2="100%" y2="100%">
      <stop offset="0%" stop-color="#d97706"/>
      <stop offset="100%" stop-color="#f59e0b"/>
    </linearGradient>
    <linearGradient id="amberLight" x1="0%" y1="100%" x2="100%" y2="0%">
      <stop offset="0%" stop-color="#fbbf24"/>
      <stop offset="100%" stop-color="#fcd34d"/>
    </linearGradient>
    <linearGradient id="steel" x1="0%" y1="0%" x2="0%" y2="100%">
      <stop offset="0%" stop-color="#475569"/>
      <stop offset="100%" stop-color="#334155"/>
    </linearGradient>
    <linearGradient id="steelLight" x1="0%" y1="0%" x2="0%" y2="100%">
      <stop offset="0%" stop-color="#64748b"/>
      <stop offset="100%" stop-color="#475569"/>
    </linearGradient>
    <linearGradient id="shieldGlow" x1="50%" y1="0%" x2="50%" y2="100%">
      <stop offset="0%" stop-color="#f59e0b" stop-opacity="0.3"/>
      <stop offset="100%" stop-color="#f59e0b" stop-opacity="0"/>
    </linearGradient>
    <filter id="glow">
      <feGaussianBlur stdDeviation="4" result="blur"/>
      <feMerge>
        <feMergeNode in="blur"/>
        <feMergeNode in="SourceGraphic"/>
      </feMerge>
    </filter>
  </defs>

  <!-- Background -->
  <rect width="1280" height="640" fill="#0f172a"/>

  <!-- Subtle hex grid -->
  <g opacity="0.04" stroke="#94a3b8" stroke-width="0.5" fill="none">
    <!-- Row 1 -->
    <polygon points="40,20 60,10 80,20 80,40 60,50 40,40"/>
    <polygon points="80,20 100,10 120,20 120,40 100,50 80,40"/>
    <polygon points="120,20 140,10 160,20 160,40 140,50 120,40"/>
    <polygon points="160,20 180,10 200,20 200,40 180,50 160,40"/>
    <polygon points="200,20 220,10 240,20 240,40 220,50 200,40"/>
    <polygon points="240,20 260,10 280,20 280,40 260,50 240,40"/>
    <polygon points="280,20 300,10 320,20 320,40 300,50 280,40"/>
    <polygon points="320,20 340,10 360,20 360,40 340,50 320,40"/>
    <polygon points="360,20 380,10 400,20 400,40 380,50 360,40"/>
    <polygon points="400,20 420,10 440,20 440,40 420,50 400,40"/>
    <polygon points="440,20 460,10 480,20 480,40 460,50 440,40"/>
    <polygon points="480,20 500,10 520,20 520,40 500,50 480,40"/>
    <polygon points="520,20 540,10 560,20 560,40 540,50 520,40"/>
    <polygon points="560,20 580,10 600,20 600,40 580,50 560,40"/>
    <polygon points="600,20 620,10 640,20 640,40 620,50 600,40"/>
    <polygon points="640,20 660,10 680,20 680,40 660,50 640,40"/>
    <polygon points="680,20 700,10 720,20 720,40 700,50 680,40"/>
    <polygon points="720,20 740,10 760,20 760,40 740,50 720,40"/>
    <polygon points="760,20 780,10 800,20 800,40 780,50 760,40"/>
    <polygon points="800,20 820,10 840,20 840,40 820,50 800,40"/>
    <polygon points="840,20 860,10 880,20 880,40 860,50 840,40"/>
    <polygon points="880,20 900,10 920,20 920,40 900,50 880,40"/>
    <polygon points="920,20 940,10 960,20 960,40 940,50 920,40"/>
    <polygon points="960,20 980,10 1000,20 1000,40 980,50 960,40"/>
    <polygon points="1000,20 1020,10 1040,20 1040,40 1020,50 1000,40"/>
    <polygon points="1040,20 1060,10 1080,20 1080,40 1060,50 1040,40"/>
    <polygon points="1080,20 1100,10 1120,20 1120,40 1100,50 1080,40"/>
    <polygon points="1120,20 1140,10 1160,20 1160,40 1140,50 1120,40"/>
    <polygon points="1160,20 1180,10 1200,20 1200,40 1180,50 1160,40"/>
    <polygon points="1200,20 1220,10 1240,20 1240,40 1220,50 1200,40"/>
    <!-- Row 2 (offset) -->
    <polygon points="60,50 80,40 100,50 100,70 80,80 60,70"/>
    <polygon points="100,50 120,40 140,50 140,70 120,80 100,70"/>
    <polygon points="140,50 160,40 180,50 180,70 160,80 140,70"/>
    <polygon points="180,50 200,40 220,50 220,70 200,80 180,70"/>
    <polygon points="220,50 240,40 260,50 260,70 240,80 220,70"/>
    <polygon points="260,50 280,40 300,50 300,70 280,80 260,70"/>
    <polygon points="300,50 320,40 340,50 340,70 320,80 300,70"/>
    <polygon points="340,50 360,40 380,50 380,70 360,80 340,70"/>
    <polygon points="380,50 400,40 420,50 420,70 400,80 380,70"/>
    <polygon points="420,50 440,40 460,50 460,70 440,80 420,70"/>
    <polygon points="460,50 480,40 500,50 500,70 480,80 460,70"/>
    <polygon points="500,50 520,40 540,50 540,70 520,80 500,70"/>
    <polygon points="540,50 560,40 580,50 580,70 560,80 540,70"/>
    <polygon points="580,50 600,40 620,50 620,70 600,80 580,70"/>
    <polygon points="620,50 640,40 660,50 660,70 640,80 620,70"/>
    <polygon points="660,50 680,40 700,50 700,70 680,80 660,70"/>
    <polygon points="700,50 720,40 740,50 740,70 720,80 700,70"/>
    <polygon points="740,50 760,40 780,50 780,70 760,80 740,70"/>
    <polygon points="780,50 800,40 820,50 820,70 800,80 780,70"/>
    <polygon points="820,50 840,40 860,50 860,70 840,80 820,70"/>
    <polygon points="860,50 880,40 900,50 900,70 880,80 860,70"/>
    <polygon points="900,50 920,40 940,50 940,70 920,80 900,70"/>
    <polygon points="940,50 960,40 980,50 980,70 960,80 940,70"/>
    <polygon points="980,50 1000,40 1020,50 1020,70 1000,80 980,70"/>
    <polygon points="1020,50 1040,40 1060,50 1060,70 1040,80 1020,70"/>
    <polygon points="1060,50 1080,40 1100,50 1100,70 1080,80 1060,70"/>
    <polygon points="1100,50 1120,40 1140,50 1140,70 1120,80 1100,70"/>
    <polygon points="1140,50 1160,40 1180,50 1180,70 1160,80 1140,70"/>
    <polygon points="1180,50 1200,40 1220,50 1220,70 1200,80 1180,70"/>
    <!-- Row 3 -->
    <polygon points="40,80 60,70 80,80 80,100 60,110 40,100"/>
    <polygon points="80,80 100,70 120,80 120,100 100,110 80,100"/>
    <polygon points="120,80 140,70 160,80 160,100 140,110 120,100"/>
    <polygon points="160,80 180,70 200,80 200,100 180,110 160,100"/>
    <polygon points="200,80 220,70 240,80 240,100 220,110 200,100"/>
    <polygon points="240,80 260,70 280,80 280,100 260,110 240,100"/>
    <polygon points="280,80 300,70 320,80 320,100 300,110 280,100"/>
    <polygon points="320,80 340,70 360,80 360,100 340,110 320,100"/>
    <polygon points="360,80 380,70 400,80 400,100 380,110 360,100"/>
    <polygon points="400,80 420,70 440,80 440,100 420,110 400,100"/>
    <polygon points="440,80 460,70 480,80 480,100 460,110 440,100"/>
    <polygon points="480,80 500,70 520,80 520,100 500,110 480,100"/>
    <polygon points="520,80 540,70 560,80 560,100 540,110 520,100"/>
    <polygon points="560,80 580,70 600,80 600,100 580,110 560,100"/>
    <polygon points="600,80 620,70 640,80 640,100 620,110 600,100"/>
    <polygon points="640,80 660,70 680,80 680,100 660,110 640,100"/>
    <polygon points="680,80 700,70 720,80 720,100 700,110 680,100"/>
    <polygon points="720,80 740,70 760,80 760,100 740,110 720,100"/>
    <polygon points="760,80 780,70 800,80 800,100 780,110 760,100"/>
    <polygon points="800,80 820,70 840,80 840,100 820,110 800,100"/>
    <polygon points="840,80 860,70 880,80 880,100 860,110 840,100"/>
    <polygon points="880,80 900,70 920,80 920,100 900,110 880,100"/>
    <polygon points="920,80 940,70 960,80 960,100 940,110 920,100"/>
    <polygon points="960,80 980,70 1000,80 1000,100 980,110 960,100"/>
    <polygon points="1000,80 1020,70 1040,80 1040,100 1020,110 1000,100"/>
    <polygon points="1040,80 1060,70 1080,80 1080,100 1060,110 1040,100"/>
    <polygon points="1080,80 1100,70 1120,80 1120,100 1100,110 1080,100"/>
    <polygon points="1120,80 1140,70 1160,80 1160,100 1140,110 1120,100"/>
    <polygon points="1160,80 1180,70 1200,80 1200,100 1180,110 1160,100"/>
    <polygon points="1200,80 1220,70 1240,80 1240,100 1220,110 1200,100"/>
    <!-- Row 4 (offset) -->
    <polygon points="60,110 80,100 100,110 100,130 80,140 60,130"/>
    <polygon points="140,110 160,100 180,110 180,130 160,140 140,130"/>
    <polygon points="220,110 240,100 260,110 260,130 240,140 220,130"/>
    <polygon points="300,110 320,100 340,110 340,130 320,140 300,130"/>
    <polygon points="380,110 400,100 420,110 420,130 400,140 380,130"/>
    <polygon points="460,110 480,100 500,110 500,130 480,140 460,130"/>
    <polygon points="540,110 560,100 580,110 580,130 560,140 540,130"/>
    <polygon points="620,110 640,100 660,110 660,130 640,140 620,130"/>
    <polygon points="700,110 720,100 740,110 740,130 720,140 700,130"/>
    <polygon points="780,110 800,100 820,110 820,130 800,140 780,130"/>
    <polygon points="860,110 880,100 900,110 900,130 880,140 860,130"/>
    <polygon points="940,110 960,100 980,110 980,130 960,140 940,130"/>
    <polygon points="1020,110 1040,100 1060,110 1060,130 1040,140 1020,130"/>
    <polygon points="1100,110 1120,100 1140,110 1140,130 1120,140 1100,130"/>
    <polygon points="1180,110 1200,100 1220,110 1220,130 1200,140 1180,130"/>
    <!-- Rows 5-8 (sparser towards bottom) -->
    <polygon points="40,140 60,130 80,140 80,160 60,170 40,160"/>
    <polygon points="160,140 180,130 200,140 200,160 180,170 160,160"/>
    <polygon points="280,140 300,130 320,140 320,160 300,170 280,160"/>
    <polygon points="400,140 420,130 440,140 440,160 420,170 400,160"/>
    <polygon points="520,140 540,130 560,140 560,160 540,170 520,160"/>
    <polygon points="640,140 660,130 680,140 680,160 660,170 640,160"/>
    <polygon points="760,140 780,130 800,140 800,160 780,170 760,160"/>
    <polygon points="880,140 900,130 920,140 920,160 900,170 880,160"/>
    <polygon points="1000,140 1020,130 1040,140 1040,160 1020,170 1000,160"/>
    <polygon points="1120,140 1140,130 1160,140 1160,160 1140,170 1120,160"/>
    <polygon points="100,170 120,160 140,170 140,190 120,200 100,190"/>
    <polygon points="220,170 240,160 260,170 260,190 240,200 220,190"/>
    <polygon points="340,170 360,160 380,170 380,190 360,200 340,190"/>
    <polygon points="460,170 480,160 500,170 500,190 480,200 460,190"/>
    <polygon points="580,170 600,160 620,170 620,190 600,200 580,190"/>
    <polygon points="700,170 720,160 740,170 740,190 720,200 700,190"/>
    <polygon points="820,170 840,160 860,170 860,190 840,200 820,190"/>
    <polygon points="940,170 960,160 980,170 980,190 960,200 940,190"/>
    <polygon points="1060,170 1080,160 1100,170 1100,190 1080,200 1060,190"/>
    <polygon points="1180,170 1200,160 1220,170 1220,190 1200,200 1180,190"/>
  </g>

  <!-- === Illustration: Two runners converging through a shield gate === -->

  <!-- Runner A (top-left server box) -->
  <g transform="translate(140, 180)">
    <!-- Server body -->
    <rect x="0" y="0" width="120" height="80" rx="6" fill="url(#steel)" stroke="#475569" stroke-width="1.5"/>
    <rect x="0" y="0" width="120" height="24" rx="6" fill="url(#steelLight)"/>
    <rect x="0" y="18" width="120" height="6" fill="url(#steelLight)"/>
    <!-- Status lights -->
    <circle cx="16" cy="12" r="4" fill="#22c55e" opacity="0.9"/>
    <circle cx="30" cy="12" r="4" fill="#22c55e" opacity="0.6"/>
    <circle cx="44" cy="12" r="4" fill="#475569"/>
    <!-- Drive bays -->
    <rect x="10" y="34" width="100" height="6" rx="1" fill="#1e293b"/>
    <rect x="10" y="46" width="100" height="6" rx="1" fill="#1e293b"/>
    <rect x="10" y="58" width="100" height="6" rx="1" fill="#1e293b"/>
    <!-- Label -->
    <text x="60" y="76" text-anchor="middle" font-family="'SF Mono', monospace" font-size="9" fill="#94a3b8" opacity="0.6">build-a</text>
  </g>

  <!-- Runner B (bottom-left server box) -->
  <g transform="translate(140, 370)">
    <!-- Server body -->
    <rect x="0" y="0" width="120" height="80" rx="6" fill="url(#steel)" stroke="#475569" stroke-width="1.5"/>
    <rect x="0" y="0" width="120" height="24" rx="6" fill="url(#steelLight)"/>
    <rect x="0" y="18" width="120" height="6" fill="url(#steelLight)"/>
    <!-- Status lights -->
    <circle cx="16" cy="12" r="4" fill="#22c55e" opacity="0.9"/>
    <circle cx="30" cy="12" r="4" fill="#22c55e" opacity="0.6"/>
    <circle cx="44" cy="12" r="4" fill="#475569"/>
    <!-- Drive bays -->
    <rect x="10" y="34" width="100" height="6" rx="1" fill="#1e293b"/>
    <rect x="10" y="46" width="100" height="6" rx="1" fill="#1e293b"/>
    <rect x="10" y="58" width="100" height="6" rx="1" fill="#1e293b"/>
    <!-- Label -->
    <text x="60" y="76" text-anchor="middle" font-family="'SF Mono', monospace" font-size="9" fill="#94a3b8" opacity="0.6">build-b</text>
  </g>

  <!-- Converging lines from runners to shield -->
  <g stroke="url(#amber)" stroke-width="2" fill="none" opacity="0.7">
    <!-- From runner A -->
    <line x1="260" y1="220" x2="340" y2="300"/>
    <!-- From runner B -->
    <line x1="260" y1="410" x2="340" y2="330"/>
  </g>

  <!-- Hash comparison symbol (= sign between lines) -->
  <g transform="translate(290, 300)">
    <rect x="0" y="0" width="16" height="3" rx="1" fill="#f59e0b" opacity="0.8"/>
    <rect x="0" y="7" width="16" height="3" rx="1" fill="#f59e0b" opacity="0.8"/>
  </g>

  <!-- Central shield (the gate) -->
  <g transform="translate(350, 240)" filter="url(#glow)">
    <!-- Shield glow -->
    <ellipse cx="60" cy="75" rx="70" ry="85" fill="url(#shieldGlow)"/>
    <!-- Shield body -->
    <path d="M60,10 L105,35 L105,85 Q105,130 60,150 Q15,130 15,85 L15,35 Z"
          fill="#1e293b" stroke="url(#amber)" stroke-width="2.5"/>
    <!-- Inner shield detail -->
    <path d="M60,25 L92,44 L92,82 Q92,118 60,135 Q28,118 28,82 L28,44 Z"
          fill="none" stroke="url(#amberDark)" stroke-width="1" opacity="0.5"/>
    <!-- Checkmark inside shield -->
    <polyline points="42,78 55,95 82,58" fill="none" stroke="url(#amberLight)" stroke-width="4" stroke-linecap="round" stroke-linejoin="round"/>
  </g>

  <!-- Output arrow from shield to publish -->
  <g stroke="url(#amber)" stroke-width="2" fill="none" opacity="0.7">
    <line x1="470" y1="315" x2="510" y2="315"/>
    <!-- Arrowhead -->
    <polygon points="510,308 525,315 510,322" fill="url(#amber)" stroke="none" opacity="0.7"/>
  </g>

  <!-- npm package box (publish output) -->
  <g transform="translate(530, 280)">
    <rect x="0" y="0" width="70" height="70" rx="8" fill="#1e293b" stroke="url(#amberDark)" stroke-width="1.5"/>
    <!-- npm-style box icon -->
    <rect x="18" y="18" width="34" height="34" rx="2" fill="none" stroke="url(#amber)" stroke-width="2"/>
    <rect x="26" y="26" width="8" height="18" fill="url(#amber)"/>
    <rect x="38" y="26" width="8" height="10" fill="url(#amber)"/>
    <!-- Label -->
    <text x="35" y="66" text-anchor="middle" font-family="'SF Mono', monospace" font-size="9" fill="#94a3b8" opacity="0.6">publish</text>
  </g>

  <!-- Gate labels (floating, subtle) -->
  <g font-family="'SF Mono', monospace" font-size="8" fill="#64748b" opacity="0.4">
    <text x="380" y="210">sha256 match</text>
    <text x="345" y="420">secret scan</text>
    <text x="345" y="435">exports check</text>
    <text x="345" y="450">vector gate</text>
  </g>

  <!-- Divider -->
  <g transform="translate(590, 220)">
    <line x1="0" y1="0" x2="0" y2="200" stroke="#334155" stroke-width="1" opacity="0.5"/>
    <line x1="6" y1="0" x2="6" y2="200" stroke="#334155" stroke-width="1" opacity="0.5"/>
    <!-- Shield icon between divider lines -->
    <g transform="translate(-4, 88)" fill="none" stroke="#64748b" stroke-width="1.5">
      <path d="M7,2 L13,5 L13,10 Q13,14 7,16 Q1,14 1,10 L1,5 Z" fill="#1e293b"/>
      <polyline points="4,10 6,12.5 10,7" stroke-width="1.2" stroke-linecap="round" stroke-linejoin="round"/>
    </g>
  </g>

  <!-- Title -->
  <text x="660" y="310" font-family="'SF Mono', 'Fira Code', 'JetBrains Mono', 'Menlo', monospace" font-size="48" font-weight="bold" fill="#f8fafc">anvil</text>

  <!-- Tagline -->
  <text x="660" y="350" font-family="'Inter', -apple-system, 'Segoe UI', sans-serif" font-size="18" fill="#94a3b8">forge-hardened npm publishing. reproducible builds.</text>

  <!-- Keyword ticker -->
  <text y="622" font-family="'SF Mono', monospace" font-size="12" fill="#94a3b8" opacity="0.06">
    <tspan x="20">OIDC</tspan>
    <tspan dx="20">TRUSTED-PUBLISHING</tspan>
    <tspan dx="20">REPRODUCIBLE-BUILDS</tspan>
    <tspan dx="20">SLSA</tspan>
    <tspan dx="20">PROVENANCE</tspan>
    <tspan dx="20">SECRET-SCAN</tspan>
    <tspan dx="20">EXPORTS-CHECK</tspan>
    <tspan dx="20">VECTOR-GATE</tspan>
    <tspan dx="20">NPM-AUDIT</tspan>
    <tspan dx="20">ACTION-PINS</tspan>
    <tspan dx="20">PURE-BASH</tspan>
    <tspan dx="20">ZERO-DEPS</tspan>
  </text>
</svg>
